<?xml version="1.0" encoding="UTF-8"?>
<svg width="30px" height="30px" viewBox="0 0 30 30" version="1.1" xmlns="http://www.w3.org/2000/svg" xmlns:xlink="http://www.w3.org/1999/xlink">
    <!-- Generator: Sketch 39.1 (31720) - http://www.bohemiancoding.com/sketch -->
    <title>Artboard</title>
    <desc>Created with Sketch.</desc>
    <defs></defs>
    <g id="Page-1" stroke="none" stroke-width="1" fill="none" fill-rule="evenodd">
        <g id="Artboard" fill="#575756">
            <g id="Group" transform="translate(4.000000, 0.000000)">
                <path d="M11.613,30.277 C11.612,30.277 11.612,30.277 11.613,30.277 C7.698,30.277 3.655,30.241 3.09,30.212 L2.987,30.207 C2.204,30.169 1.229,30.121 0.87,28.982 C0.599,28.125 0.667,22.85 0.768,17.053 C0.799,15.263 0.824,13.85 0.817,13.209 C0.813,12.838 0.804,12.308 0.793,11.676 C0.743,8.665 0.659,3.626 0.834,2.237 C0.974,1.118 1.876,0.437 3.374,0.32 C3.737,0.292 4.689,0.277 6.205,0.277 C10.648,0.277 18.511,0.403 19.519,0.474 C21.608,0.62 21.554,2.712 21.507,4.557 C21.48,5.605 21.742,25.789 21.802,27.302 L21.814,27.551 C21.859,28.46 21.922,29.704 20.836,30.083 C20.469,30.211 17.365,30.277 11.613,30.277 L11.613,30.277 Z M6.204,0.702 C4.721,0.702 3.753,0.717 3.406,0.744 C2.504,0.814 1.399,1.14 1.255,2.29 C1.084,3.65 1.171,8.867 1.218,11.67 C1.228,12.302 1.237,12.834 1.241,13.206 C1.248,13.852 1.224,15.268 1.193,17.061 C1.117,21.414 1.002,27.992 1.275,28.854 C1.545,29.71 2.223,29.744 3.007,29.782 L3.111,29.788 C3.672,29.816 7.704,29.852 11.612,29.852 C19.569,29.852 20.577,29.721 20.696,29.682 C21.423,29.428 21.441,28.613 21.388,27.573 L21.376,27.32 C21.316,25.805 21.053,5.596 21.08,4.557 C21.135,2.413 21.054,1.008 19.487,0.898 C18.486,0.827 10.641,0.702 6.204,0.702 L6.204,0.702 Z" id="Shape"></path>
                <path d="M13.708,19.639 C13.61,19.639 13.517,19.623 13.43,19.592 C13.013,19.441 12.749,19.094 12.493,18.758 C12.362,18.587 12.239,18.425 12.103,18.3 C11.757,17.984 11.296,17.764 10.85,17.552 C10.599,17.432 10.35,17.313 10.12,17.179 C9.763,16.971 8.973,16.565 8.137,16.135 C6.708,15.401 5.089,14.569 4.583,14.197 L4.526,14.156 C3.592,13.472 0.751,11.394 0.751,8.919 C0.751,8.657 0.918,8.346 1.712,8.346 C2.726,8.346 4.535,8.813 6.131,9.225 C6.869,9.415 7.567,9.595 8.106,9.708 C8.398,9.77 8.69,9.828 8.982,9.888 C10.172,10.129 11.403,10.378 12.59,10.758 C13.561,11.068 14.577,11.227 15.559,11.382 C16.488,11.528 17.449,11.679 18.38,11.956 C18.57,12.014 18.783,12.072 19.008,12.134 C20.284,12.484 21.603,12.846 21.603,13.54 C21.604,14.484 20.436,15.25 19.874,15.617 C19.54,15.836 18.76,16.395 17.934,16.988 C16.838,17.774 15.706,18.588 15.236,18.88 C15.158,18.928 15.07,18.99 14.974,19.058 C14.607,19.317 14.151,19.639 13.708,19.639 L13.708,19.639 Z M1.712,8.771 C1.386,8.771 1.176,8.83 1.176,8.919 C1.176,11.179 3.886,13.161 4.777,13.814 L4.834,13.855 C5.313,14.207 6.986,15.066 8.331,15.757 C9.209,16.208 9.967,16.598 10.334,16.812 C10.553,16.94 10.792,17.053 11.032,17.168 C11.507,17.394 11.997,17.627 12.389,17.987 C12.553,18.136 12.693,18.321 12.829,18.5 C13.058,18.8 13.273,19.083 13.572,19.191 C13.869,19.298 14.358,18.97 14.727,18.711 C14.83,18.639 14.925,18.571 15.008,18.519 C15.467,18.235 16.645,17.389 17.683,16.644 C18.513,16.048 19.297,15.486 19.639,15.262 C20.099,14.96 21.177,14.255 21.176,13.54 C21.176,13.17 19.691,12.763 18.893,12.543 C18.665,12.481 18.449,12.421 18.256,12.363 C17.352,12.093 16.406,11.945 15.491,11.801 C14.493,11.645 13.461,11.483 12.459,11.162 C11.294,10.79 10.075,10.543 8.896,10.304 C8.603,10.244 8.31,10.186 8.017,10.124 C7.468,10.009 6.766,9.828 6.022,9.636 C4.453,9.231 2.672,8.771 1.712,8.771 L1.712,8.771 Z" id="Shape"></path>
                <path d="M11.243,9.682 C10.961,9.682 10.651,9.612 10.377,9.55 L10.045,9.479 C7.342,8.92 3.991,8.145 3.374,7.628 C2.688,7.054 2.944,6.462 3.131,6.031 L3.131,6.03 L3.165,5.953 C3.238,5.789 3.312,5.618 3.364,5.442 C3.434,5.208 3.488,4.844 3.546,4.461 C3.703,3.415 3.898,2.113 4.603,1.695 C4.878,1.532 5.2,1.517 5.56,1.648 C6.173,1.871 6.809,2.056 7.424,2.235 C7.795,2.342 8.165,2.45 8.534,2.566 C9.132,2.754 9.758,2.874 10.365,2.989 C10.686,3.05 11.013,3.112 11.34,3.185 C11.374,3.034 11.405,2.881 11.435,2.735 C11.575,2.045 11.685,1.5 12.066,1.393 C12.638,1.221 18.725,2.546 19.215,2.688 L19.351,2.727 C19.896,2.882 20.226,2.976 20.378,3.265 C20.513,3.521 20.448,3.85 20.309,4.266 L20.243,4.461 C20.106,4.857 19.919,5.401 19.75,6.256 C19.648,6.773 19.586,7.166 19.538,7.469 C19.426,8.178 19.379,8.471 19.053,8.657 C18.531,8.95 17.843,8.668 17.29,8.44 C17.144,8.379 17.008,8.323 16.888,8.284 C15.404,7.797 13.917,7.496 12.476,7.211 C12.363,7.647 12.269,8.097 12.197,8.59 C12.149,8.912 12.082,9.273 11.887,9.466 C11.721,9.627 11.493,9.682 11.243,9.682 L11.243,9.682 Z M3.521,6.2 C3.306,6.698 3.248,6.969 3.647,7.303 C4.064,7.652 6.488,8.31 10.132,9.064 L10.47,9.137 C10.864,9.226 11.401,9.347 11.585,9.164 C11.696,9.055 11.752,8.673 11.773,8.528 C11.945,7.362 12.229,6.431 12.602,5.393 C12.794,4.861 12.827,4.502 12.706,4.264 C12.602,4.057 12.357,3.9 11.959,3.783 C11.411,3.622 10.838,3.512 10.284,3.407 C9.666,3.29 9.027,3.168 8.406,2.973 C8.04,2.857 7.673,2.75 7.305,2.644 C6.683,2.463 6.04,2.276 5.414,2.047 C5.177,1.961 4.983,1.965 4.82,2.062 C4.289,2.376 4.103,3.618 3.966,4.524 C3.904,4.941 3.849,5.301 3.772,5.563 C3.713,5.765 3.632,5.948 3.554,6.125 L3.521,6.2 L3.521,6.2 Z M12.586,6.801 C14.03,7.086 15.521,7.389 17.018,7.88 C17.147,7.923 17.293,7.983 17.45,8.047 C17.918,8.239 18.499,8.482 18.842,8.287 C18.978,8.21 19.011,8.072 19.117,7.403 C19.165,7.096 19.229,6.698 19.332,6.174 C19.506,5.29 19.699,4.731 19.84,4.322 L19.905,4.131 C20.024,3.776 20.054,3.564 20.001,3.463 C19.934,3.334 19.64,3.251 19.233,3.135 L19.096,3.096 C18.385,2.892 12.661,1.735 12.176,1.802 C12.048,1.838 11.924,2.452 11.85,2.819 C11.819,2.971 11.788,3.128 11.752,3.284 C11.862,3.312 11.971,3.343 12.08,3.374 C12.603,3.529 12.923,3.75 13.086,4.071 C13.266,4.425 13.24,4.878 13.003,5.537 C12.847,5.969 12.708,6.382 12.586,6.801 L12.586,6.801 Z" id="Shape"></path>
            </g>
        </g>
    </g>
</svg>