<?xml version="1.0" encoding="UTF-8"?>
<svg width="30px" height="20px" viewBox="0 0 30 20" version="1.1" xmlns="http://www.w3.org/2000/svg" xmlns:xlink="http://www.w3.org/1999/xlink">
    <!-- Generator: Sketch 39.1 (31720) - http://www.bohemiancoding.com/sketch -->
    <title>Shape</title>
    <desc>Created with Sketch.</desc>
    <defs></defs>
    <g id="Page-1" stroke="none" stroke-width="1" fill="none" fill-rule="evenodd">
        <g id="Artboard" transform="translate(0.000000, -5.000000)" fill="#575756">
            <path d="M26.9773887,11.7987603 C26.1303887,11.2357603 25.3693887,10.8427603 24.6083887,10.5777603 C24.4203887,9.35676031 24.1063887,8.08576031 23.7043887,7.41076031 C23.2873887,6.71176031 21.9303887,5.53576031 19.8973887,5.16476031 C18.5363887,4.91576031 16.6703887,4.95076031 14.7803887,5.25776031 C10.6503887,5.92976031 8.87138871,6.56476031 7.45838871,7.87176031 C6.96738871,8.32676031 6.61638871,8.81676031 6.35938871,9.33876031 L6.33338871,9.32876031 C6.29638871,9.41976031 6.26538871,9.51076031 6.23938871,9.60076031 C5.95638871,10.2677603 5.81138871,10.9847603 5.72038871,11.7437603 C4.07438871,12.1977603 2.66838871,13.3467603 1.77338871,14.2367603 C0.345388712,15.6567603 -0.224611288,17.2027603 0.0793887115,18.8307603 C0.922388712,23.3487603 8.13438871,24.9787603 12.7063887,24.9787603 C12.8143887,24.9787603 12.9213887,24.9777603 13.0253887,24.9757603 C21.1653887,24.8357603 25.6683887,22.0497603 27.2253887,20.8577603 C28.8583887,19.6087603 29.7533887,18.2417603 29.9623887,16.6777603 C30.2813887,14.3167603 28.5343887,12.8297603 26.9773887,11.7987603 L26.9773887,11.7987603 Z M17.8543887,17.7987603 C17.8843887,17.4287603 17.9693887,17.2867603 18.0103887,17.2637603 C18.4113887,17.0337603 19.3143887,16.6877603 20.0383887,16.4097603 C20.3453887,16.2917603 20.6003887,16.1937603 20.8043887,16.1117603 C20.6663887,16.8947603 20.9573887,18.0767603 21.2293887,18.4977603 C20.3813887,19.0747603 18.5613887,19.9827603 18.1693887,19.7237603 C18.0283887,19.6077603 17.7873887,18.6217603 17.8543887,17.7987603 L17.8543887,17.7987603 Z M21.1953887,16.7327603 C21.1713887,16.3167603 21.2253887,16.0027603 21.3433887,15.8617603 C21.8803887,15.5217603 22.0153887,15.4327603 22.6323887,14.9657603 C22.7283887,15.0777603 22.8903887,15.4047603 23.0033887,15.9577603 C23.1383887,16.6197603 23.1073887,17.1447603 22.9973887,17.2857603 C22.7163887,17.5017603 22.2623887,17.7977603 21.9293887,18.0147603 C21.7863887,18.1077603 21.6613887,18.1887603 21.5733887,18.2497603 C21.4403887,18.0357603 21.2333887,17.3887603 21.1953887,16.7327603 L21.1953887,16.7327603 Z M22.9233887,14.6587603 C22.9833887,14.5847603 23.0523887,14.4967603 23.1343887,14.3937603 C23.4543887,13.9897603 24.1843887,13.0677603 24.5323887,12.9977603 C24.6913887,13.2897603 24.7483887,14.7227603 24.6723887,15.2307603 C24.5843887,15.8167603 24.0893887,16.3707603 23.5173887,16.8627603 C23.5413887,16.2337603 23.3443887,15.4187603 23.1443887,14.9967603 C23.0753887,14.8527603 23.0023887,14.7397603 22.9233887,14.6587603 L22.9233887,14.6587603 Z M6.64738871,9.72276031 C6.89038871,9.16776031 7.23738871,8.65676031 7.74838871,8.18276031 C9.08938871,6.94176031 10.8153887,6.33276031 14.8503887,5.67676031 C16.6953887,5.37576031 18.5073887,5.34176031 19.8233887,5.58176031 C21.3023887,5.85176031 22.4073887,6.58676031 22.9883887,7.18476031 L22.9783887,7.19176031 C23.2893887,7.63576031 23.3943887,8.09776031 23.2903887,8.56476031 C23.1233887,9.31476031 22.3833887,10.1277603 21.3133887,10.7397603 C18.3153887,12.4527603 12.6343887,13.6007603 9.84038871,13.0567603 C8.81738871,12.8567603 7.43338871,12.2867603 6.90138871,11.3397603 C6.57638871,10.7667603 6.49538871,10.2587603 6.64738871,9.72276031 L6.64738871,9.72276031 Z M5.90238871,14.4487603 C5.95538871,13.8957603 6.00738871,13.3427603 6.04938871,12.7887603 C6.09838871,12.1427603 6.15638871,11.5367603 6.26938871,10.9687603 C6.33138871,11.1587603 6.41738871,11.3507603 6.52838871,11.5477603 C7.13138871,12.6197603 8.59138871,13.2457603 9.75738871,13.4737603 C12.6833887,14.0427603 18.4003887,12.8927603 21.5223887,11.1087603 C22.0853887,10.7867603 23.4243887,9.90376031 23.7033887,8.65776031 C23.7113887,8.61976031 23.7193887,8.58276031 23.7253887,8.54576031 C23.9363887,9.20776031 24.1043887,10.0277603 24.2173887,10.8157603 L24.1953887,10.8897603 C24.2063887,10.8927603 24.2183887,10.8967603 24.2303887,10.9007603 C24.3173887,11.5297603 24.3663887,12.1267603 24.3773887,12.6057603 C23.9223887,12.7577603 23.3913887,13.3877603 22.8033887,14.1307603 C22.6413887,14.3347603 22.4583887,14.5667603 22.3963887,14.6127603 C21.7473887,15.1047603 21.6343887,15.1757603 21.0933887,15.5187603 C20.9613887,15.6017603 20.4153887,15.8107603 19.8873887,16.0137603 C19.1103887,16.3117603 18.2293887,16.6497603 17.7993887,16.8967603 C17.6643887,16.9737603 17.5703887,17.1277603 17.5073887,17.3447603 C16.4113887,17.6217603 14.2183887,17.8387603 13.4833887,17.8717603 C10.0133887,18.0307603 7.40838871,16.9887603 6.37038871,15.8867603 C6.02438871,15.5197603 5.85238871,15.1457603 5.87038871,14.8007603 L5.90238871,14.4487603 L5.90238871,14.4487603 Z M5.76438871,15.8077603 C5.84738871,15.9327603 5.94638871,16.0557603 6.06038871,16.1767603 C7.16538871,17.3487603 9.89938871,18.4637603 13.5023887,18.2957603 C14.1583887,18.2657603 16.2213887,18.0727603 17.4333887,17.7977603 C17.4293887,17.8497603 17.4223887,17.8927603 17.4203887,17.9487603 C17.4033887,18.4987603 17.5013887,19.3127603 17.7123887,19.7717603 C15.0933887,20.5427603 11.5763887,20.5257603 9.50838871,20.0957603 C8.31438871,19.8477603 6.33538871,18.8087603 5.82438871,17.6787603 C5.59938871,17.1817603 5.68438871,16.4547603 5.76438871,15.8077603 L5.76438871,15.8077603 Z M29.5423887,16.6217603 C29.3493887,18.0687603 28.5073887,19.3437603 26.9683887,20.5197603 C25.4433887,21.6857603 21.0323887,24.4127603 13.0193887,24.5507603 C8.60838871,24.6387603 1.31338871,23.1197603 0.498388712,18.7517603 C0.221388712,17.2707603 0.751388712,15.8527603 2.07438871,14.5377603 C2.90338871,13.7127603 4.18438871,12.6587603 5.67338871,12.1997603 C5.65538871,12.3837603 5.64038871,12.5687603 5.62638871,12.7567603 C5.58438871,13.3077603 5.53238871,13.8577603 5.48038871,14.4077603 L5.45238871,14.7047603 L5.45138871,14.7047603 C5.44938871,14.7257603 5.44738871,14.7467603 5.44638871,14.7677603 L5.40138871,15.2527603 C5.38838871,15.3987603 5.36838871,15.5577603 5.34738871,15.7227603 C5.25938871,16.4327603 5.15938871,17.2387603 5.43838871,17.8527603 C6.02638871,19.1537603 8.16738871,20.2497603 9.42238871,20.5107603 C11.6493887,20.9727603 15.3083887,20.9837603 18.0433887,20.1217603 C18.1333887,20.1567603 18.2333887,20.1787603 18.3503887,20.1787603 C19.3923887,20.1787603 21.3743887,18.9387603 21.7213887,18.6657603 C21.7823887,18.6177603 21.9523887,18.5077603 22.1623887,18.3697603 C22.5083887,18.1447603 22.9813887,17.8357603 23.2743887,17.6077603 C24.0983887,16.9697603 24.9583887,16.1967603 25.0933887,15.2937603 C25.1513887,14.9067603 25.1743887,13.1047603 24.8423887,12.6977603 C24.8293887,12.6817603 24.8153887,12.6777603 24.8013887,12.6647603 C24.7953887,12.2137603 24.7553887,11.6577603 24.6773887,11.0547603 C25.3363887,11.3047603 26.0043887,11.6607603 26.7433887,12.1527603 C28.1963887,13.1157603 29.8283887,14.4937603 29.5423887,16.6217603 L29.5423887,16.6217603 Z" id="Shape"></path>
        </g>
    </g>
</svg>