<?xml version="1.0" encoding="UTF-8"?>
<svg width="30px" height="30px" viewBox="0 0 30 30" version="1.1" xmlns="http://www.w3.org/2000/svg" xmlns:xlink="http://www.w3.org/1999/xlink">
    <!-- Generator: Sketch 39.1 (31720) - http://www.bohemiancoding.com/sketch -->
    <title>Shape</title>
    <desc>Created with Sketch.</desc>
    <defs></defs>
    <g id="Page-1" stroke="none" stroke-width="1" fill="none" fill-rule="evenodd">
        <g id="Artboard-Copy-2" fill="#575756">
            <path d="M12.346,30.0028786 C12.329,30.0028786 12.313,30.0008786 12.296,29.9968786 C12.238,29.9828786 12.189,29.9458786 12.16,29.8938786 C11.789,29.2278786 4.333,21.0978786 2.282,18.9308786 C1.777,18.3968786 0.256,16.6238786 0.256,16.3798786 C0.255,16.3498786 0.244,16.1258786 0.226,15.7798786 C0.161,14.5078786 0.008,11.5288786 0,10.3328786 C0,10.2518786 0.044,10.1778786 0.117,10.1418786 C0.906,9.74387858 1.866,9.16287858 2.793,8.60087858 C3.275,8.30887858 3.749,8.02187858 4.186,7.76787858 C4.774,7.42687858 5.232,7.15887858 5.638,6.92187858 C6.555,6.38587858 7.207,6.00387858 8.507,5.27887858 C8.875,5.07387858 10.283,4.17487858 10.297,4.16487858 C10.299,4.16387858 10.302,4.16187858 10.305,4.16087858 C10.818,3.86087858 11.649,3.39887858 12.561,2.89187858 C14.07,2.05287858 15.781,1.10187858 16.656,0.551878576 L16.87,0.415878576 C17.676,-0.0981214238 17.964,-0.223121424 18.679,0.547878576 C18.958,0.849878576 20.021,1.78887858 21.252,2.87687858 C22.877,4.31287858 24.719,5.94087858 25.579,6.82187858 C26.596,7.86387858 27.82,9.07187858 28.714,9.95287858 C29.968,11.1888786 29.968,11.1888786 29.988,11.2758786 C30.036,11.4968786 29.904,15.7728786 29.844,17.6008786 C29.843,17.6448786 29.828,17.6868786 29.802,17.7218786 C29.391,18.2678786 24.102,22.2798786 23.1,22.9078786 C23.035,22.9488786 22.954,22.9518786 22.887,22.9148786 C22.82,22.8788786 22.777,22.8098786 22.775,22.7328786 C22.755,21.9078786 22.674,20.9158786 22.595,19.9568786 C22.567,19.6058786 22.538,19.2558786 22.512,18.9138786 C22.303,19.0608786 22.094,19.2108786 21.89,19.3568786 C21.387,19.7178786 20.909,20.0608786 20.543,20.2768786 C20.563,20.8618786 20.646,23.2968786 20.695,24.2758786 C20.698,24.3438786 20.669,24.4098786 20.616,24.4518786 C19.377,25.4498786 16.154,27.5538786 14.02,28.9468786 C13.363,29.3758786 12.813,29.7348786 12.464,29.9678786 C12.429,29.9908786 12.388,30.0028786 12.346,30.0028786 L12.346,30.0028786 Z M12.352,23.5988786 C12.479,24.5668786 12.598,28.0908786 12.602,29.3668786 C12.925,29.1548786 13.33,28.8898786 13.788,28.5908786 C15.867,27.2338786 18.985,25.1978786 20.265,24.1888786 C20.208,22.9958786 20.114,20.1628786 20.114,20.1628786 C20.111,20.0828786 20.154,20.0078786 20.224,19.9698786 C20.578,19.7758786 21.095,19.4048786 21.642,19.0118786 C21.947,18.7928786 22.265,18.5648786 22.576,18.3518786 C22.64,18.3088786 22.722,18.3028786 22.788,18.3358786 C22.857,18.3688786 22.903,18.4368786 22.908,18.5128786 C22.94,18.9708786 22.979,19.4468786 23.018,19.9238786 C23.085,20.7458786 23.154,21.5908786 23.186,22.3418786 C24.64,21.3388786 28.877,18.0928786 29.421,17.5158786 C29.482,15.6198786 29.559,12.9748786 29.573,11.8678786 C28.996,12.3008786 28.451,12.7128786 27.92,13.1158786 C25.849,14.6848786 24.06,16.0398786 21.436,17.7648786 C20.15,18.6108786 17.106,20.5578786 14.882,21.9788786 C13.767,22.6908786 12.828,23.2918786 12.352,23.5988786 L12.352,23.5988786 Z M0.679,16.3278786 C0.821,16.5568786 1.762,17.7628786 2.591,18.6388786 C3.964,20.0888786 10.537,27.2128786 12.178,29.2178786 C12.166,27.7938786 12.027,24.2128786 11.926,23.5948786 C11.139,22.7988786 9.357,20.7688786 7.781,18.9738786 C6.72,17.7658786 5.719,16.6258786 5.26,16.1368786 C4.027,14.8218786 1.574,12.1788786 0.436,10.9458786 C0.475,12.3398786 0.594,14.6718786 0.65,15.7578786 C0.664,16.0368786 0.675,16.2378786 0.679,16.3278786 L0.679,16.3278786 Z M4.464,14.6628786 C4.882,15.1118786 5.264,15.5198786 5.57,15.8468786 C6.033,16.3418786 6.991,17.4318786 8.1,18.6948786 C9.624,20.4308786 11.342,22.3858786 12.153,23.2208786 C12.639,22.9078786 13.563,22.3168786 14.653,21.6198786 C15.507,21.0728786 16.484,20.4488786 17.435,19.8398786 C16.165,18.5568786 10.728,12.8728786 9.708,11.7918786 C8.778,12.3468786 5.46,14.1518786 4.464,14.6628786 L4.464,14.6628786 Z M9.956,11.4338786 C10.803,12.3358786 16.658,18.4588786 17.801,19.6038786 C19.186,18.7158786 20.476,17.8848786 21.202,17.4068786 C21.308,17.3368786 21.412,17.2678786 21.516,17.1998786 C20.781,16.5038786 19.319,15.0238786 18.124,13.8158786 C17.491,13.1758786 16.947,12.6258786 16.657,12.3398786 C15.258,10.9578786 14.1,9.80687858 13.139,8.85187858 C11.439,7.16187858 10.376,6.10487858 9.681,5.46387858 C9.698,6.46487858 9.758,7.42987858 9.817,8.36787858 C9.88,9.35687858 9.944,10.3788786 9.956,11.4338786 L9.956,11.4338786 Z M14.127,9.23487858 C14.94,10.0428786 15.877,10.9718786 16.957,12.0388786 C17.248,12.3258786 17.793,12.8768786 18.427,13.5188786 C19.66,14.7658786 21.18,16.3028786 21.88,16.9588786 C23.109,16.1348786 24.159,15.3888786 25.164,14.6498786 C24.837,14.3048786 23.789,13.2718786 22.594,12.0948786 C20.701,10.2288786 18.367,7.92887858 17.559,7.04587858 C16.99,7.34587858 16.546,7.62487858 16.149,7.88287858 C16.101,7.91487858 15.947,8.01787858 15.741,8.15687858 C15.266,8.47787858 14.537,8.97087858 14.127,9.23487858 L14.127,9.23487858 Z M17.816,6.69587858 C18.55,7.51287858 20.953,9.88087858 22.893,11.7918786 C24.174,13.0548786 25.208,14.0738786 25.509,14.3958786 C26.225,13.8658786 26.926,13.3338786 27.664,12.7758786 C28.26,12.3238786 28.874,11.8588786 29.532,11.3668786 C29.356,11.1858786 28.913,10.7488786 28.415,10.2578786 C27.52,9.37487858 26.294,8.16687858 25.274,7.12087858 C24.425,6.25087858 22.589,4.62887858 20.97,3.19787858 C19.731,2.10287858 18.66,1.15687858 18.366,0.839878576 C18.199,0.657878576 18.081,0.539878576 17.974,0.478878576 C17.968,1.14887858 17.93,2.30287858 17.893,3.42087858 C17.848,4.80387858 17.801,6.23087858 17.816,6.69587858 L17.816,6.69587858 Z M0.522,10.4118786 C1.236,11.1868786 2.829,12.9068786 4.164,14.3398786 C4.895,13.9708786 8.589,11.9758786 9.531,11.4018786 C9.518,10.3698786 9.455,9.36687858 9.394,8.39587858 C9.332,7.40787858 9.268,6.38987858 9.255,5.32587858 C9.027,5.46687858 8.826,5.58887858 8.713,5.65187858 C7.417,6.37487858 6.766,6.75587858 5.852,7.29087858 C5.446,7.52887858 4.988,7.79587858 4.398,8.13787858 C3.963,8.38987858 3.492,8.67587858 3.012,8.96587858 C2.16,9.48187858 1.28,10.0138786 0.522,10.4118786 L0.522,10.4118786 Z M9.792,4.98987858 C10.489,5.61687858 11.588,6.70987858 13.44,8.55187858 C13.563,8.67387858 13.689,8.79987858 13.818,8.92787858 C14.196,8.68787858 15.026,8.12687858 15.504,7.80487858 C15.713,7.66387858 15.868,7.55887858 15.918,7.52687858 C16.311,7.27187858 16.789,6.97087858 17.39,6.65487858 C17.379,6.12587858 17.423,4.80187858 17.469,3.40787858 C17.505,2.30787858 17.542,1.17387858 17.549,0.505878576 C17.433,0.563878576 17.29,0.654878576 17.1,0.776878576 L16.884,0.914878576 C15.998,1.47087858 14.282,2.42487858 12.769,3.26587858 C11.862,3.76987858 11.036,4.22887858 10.524,4.52787858 C10.476,4.55587858 10.157,4.76087858 9.792,4.98987858 L9.792,4.98987858 Z M23.687,10.9038786 C23.631,10.9038786 23.576,10.8818786 23.535,10.8398786 C23.025,10.3188786 22.458,9.83687858 22.002,9.44987858 C21.437,8.97087858 21.205,8.76887858 21.148,8.60887858 C21.139,8.58387858 21.135,8.55587858 21.136,8.52887858 C21.137,8.50387858 21.24,6.04287858 21.24,5.28687858 C21.24,5.20287858 21.289,5.12687858 21.365,5.09287858 C21.442,5.05987858 21.532,5.07287858 21.594,5.12887858 C21.618,5.14987858 24.028,7.34087858 24.086,7.52087858 C24.118,7.61187858 24.121,8.17387858 24.076,8.61487858 C24.052,8.85787858 24.032,9.14187858 24.012,9.43387858 C23.981,9.87787858 23.949,10.3358786 23.897,10.7198786 C23.886,10.8008786 23.831,10.8678786 23.753,10.8928786 C23.732,10.9008786 23.71,10.9038786 23.687,10.9038786 L23.687,10.9038786 Z M21.564,8.48787858 C21.647,8.59087858 21.981,8.87387858 22.277,9.12587858 C22.648,9.44087858 23.092,9.81787858 23.524,10.2308786 C23.548,9.96587858 23.568,9.68187858 23.587,9.40387858 C23.608,9.10687858 23.628,8.81887858 23.652,8.57087858 C23.692,8.17687858 23.685,7.80587858 23.677,7.67187858 C23.469,7.45287858 22.463,6.49487858 21.657,5.75887858 C21.639,6.66787858 21.578,8.16487858 21.564,8.48787858 L21.564,8.48787858 Z" id="Shape"></path>
        </g>
    </g>
</svg>